<?xml version="1.0" encoding="utf-8"?>
<!-- Generator: Adobe Illustrator 19.0.0, SVG Export Plug-In . SVG Version: 6.00 Build 0)  -->
<svg fill="current" stroke="current" version="1.1" id="Laag_1" xmlns="http://www.w3.org/2000/svg" xmlns:xlink="http://www.w3.org/1999/xlink" x="0px" y="0px" viewBox="0 0 274.965 274.965" style="enable-background:new 0 0 274.965 274.965;" xml:space="preserve">
	<path id="XMLID_179_" d="M31.672,0v63.293L74.838,0h30.872L72.64,48.097l41.34,86.619H78.464L50.99,76.214l-19.318,27.611v30.891H0
	V0H31.672z" />
	<path id="XMLID_177_" d="M151.811,0v134.716h-32.177V0H151.811z" />
	<polygon id="XMLID_184_" points="242.489,0 242.489,224.202 207.859,0 185.785,0 151.818,224.202 151.818,140.249 100.888,140.249 
	75.192,220.881 50.765,140.249 0,140.249 0,274.965 27.324,274.965 27.324,165.119 61.66,274.965 83.975,274.965 118.982,165.119 
	118.982,274.965 175.007,274.965 199.171,110.389 224.59,274.965 274.965,274.965 274.965,0 " />
</svg>
