<?xml version="1.0" encoding="utf-8"?>
<!-- Generator: Adobe Illustrator 25.3.1, SVG Export Plug-In . SVG Version: 6.00 Build 0)  -->
<svg version="1.1" id="Laag_1" xmlns="http://www.w3.org/2000/svg" xmlns:xlink="http://www.w3.org/1999/xlink" x="0px" y="0px"
	 viewBox="0 0 527.49 281.01" style="enable-background:new 0 0 527.49 281.01;" xml:space="preserve">
<style type="text/css">
	.st0{fill:none;}
</style>
<g id="XMLID_1412_">
	<g id="XMLID_1440_">
		<path id="XMLID_1447_" d="M351.61,222.55v-44.68h10.67v10.25l6.51,9.16l9.26-19.4h11.97l-13.93,28.73l11.14,15.95h-10.4
			l-14.55-20.99v20.99H351.61z"/>
		<path id="XMLID_1445_" d="M390.5,222.55v-44.68h10.84v44.68H390.5z"/>
		<path id="XMLID_1443_" d="M379.12,134.61l11.47,35.51v-35.51h10.76v43.56h-16.68l-8.42-26.07l-8,26.07h-16.63v-43.56h8.95v35.51
			l11.25-35.51H379.12z"/>
		<path id="XMLID_1441_" d="M411.83,222.55l-10.56-71.7v26.65h-8.4v-42.88h15.61l7.51,52.63l7.9-52.63h15.66v87.94h-10.09v-71.7
			l-10.76,71.7H411.83z"/>
	</g>
	<g id="XMLID_1431_">
		<path id="XMLID_1438_" d="M527.49,175.88h-44.68V165.2h10.24l9.16-6.51l-19.4-9.26v-11.97l28.73,13.93l15.95-11.14v10.4
			l-20.99,14.55h20.99V175.88z"/>
		<path id="XMLID_1436_" d="M527.49,136.98h-44.68v-10.84h44.68V136.98z"/>
		<path id="XMLID_1434_" d="M439.55,148.36l35.51-11.47h-35.51v-10.76h43.56v16.68l-26.07,8.42l26.07,8v16.63h-43.56v-8.95h35.51
			l-35.51-11.25V148.36z"/>
		<path id="XMLID_1432_" d="M527.49,115.66l-71.7,10.56h26.65v8.4h-42.88v-15.61l52.63-7.51l-52.63-7.9V87.94h87.94v10.09h-71.7
			l71.7,10.76V115.66z"/>
	</g>
	<g id="XMLID_1422_">
		<path id="XMLID_1429_" d="M351.61,46.67h44.68v10.67h-10.25l-9.16,6.51l19.4,9.26v11.97l-28.73-13.93L351.61,82.3V71.9
			l20.99-14.55h-20.99V46.67z"/>
		<path id="XMLID_1427_" d="M351.61,85.57h44.68v10.84h-44.68V85.57z"/>
		<path id="XMLID_1425_" d="M439.55,74.19l-35.51,11.47h35.51v10.76h-43.56V79.73l26.07-8.42l-26.07-8V46.67h43.56v8.95h-35.51
			l35.51,11.25V74.19z"/>
		<path id="XMLID_1423_" d="M351.61,106.9l71.7-10.56h-26.65v-8.4h42.88v15.61l-52.63,7.51l52.63,7.9v15.66h-87.94v-10.09h71.7
			l-71.7-10.76V106.9z"/>
	</g>
	<g id="XMLID_1413_">
		<path id="XMLID_1420_" d="M527.49,0v44.68h-10.67V34.43l-6.51-9.16l-9.26,19.4h-11.97L503,15.95L491.86,0l10.4,0l14.55,20.99V0
			L527.49,0z"/>
		<path id="XMLID_1418_" d="M488.59,0v44.68h-10.84V0L488.59,0z"/>
		<path id="XMLID_1416_" d="M499.97,87.94L488.5,52.42v35.51h-10.76V44.38h16.68l8.42,26.07l8-26.07h16.63v43.56h-8.95V52.42
			l-11.25,35.51H499.97z"/>
		<path id="XMLID_1414_" d="M467.26,0l10.56,71.7V45.06h8.4v42.88h-15.61L463.1,35.3l-7.9,52.63h-15.66V0l10.09,0v71.7L460.4,0
			L467.26,0z"/>
	</g>
</g>
<polygon class="st0" points="25.28,253.87 44.68,263.13 44.68,269.65 70.45,261.33 44.38,253.32 44.38,247.36 34.43,247.36 "/>
<polygon class="st0" points="213.98,274.4 210.78,281.01 214.61,281.01 214.61,274.4 "/>
<polygon class="st0" points="225.45,274.11 225.45,274.4 225.45,281.01 230.37,281.01 225.45,247.59 "/>
<polygon class="st0" points="404.03,231.5 439.55,242.75 439.55,231.5 "/>
<polygon class="st0" points="463.1,211.18 455.2,263.82 470.61,263.82 "/>
<polygon class="st0" points="404.03,261.54 439.55,261.54 439.55,250.07 "/>
<polygon class="st0" points="200.99,160.09 220.39,169.35 220.39,175.87 246.16,167.54 220.09,159.54 220.09,153.58 210.14,153.58 
	"/>
<polygon class="st0" points="518.53,228.3 507.28,263.82 518.53,263.82 "/>
<polygon class="st0" points="351.78,281.01 351.78,282.75 363.6,281.01 "/>
<polygon class="st0" points="422.8,272.29 396.29,272.29 395.99,272.29 351.78,272.29 351.78,281.01 363.6,281.01 "/>
<polygon class="st0" points="488.5,228.3 488.5,263.82 499.97,263.82 "/>
<polygon class="st0" points="136.89,242.44 136.89,277.95 148.36,277.95 "/>
<polygon class="st0" points="228.13,151.86 263.65,163.11 263.65,151.86 "/>
<polygon class="st0" points="287.21,131.54 279.31,184.17 294.72,184.17 "/>
<polygon class="st0" points="312.6,148.66 312.6,184.17 324.07,184.17 "/>
<polygon class="st0" points="228.13,181.89 263.65,181.89 263.65,170.42 "/>
<polygon class="st0" points="342.63,148.66 331.38,184.17 342.63,184.17 "/>
<polygon class="st0" points="240.09,283.48 240.46,281.01 239.74,281.01 "/>
<polygon class="st0" points="263.65,215.19 263.65,215.24 316.28,207.73 263.65,199.83 263.65,199.78 211.01,207.29 "/>
<polygon class="st0" points="158.69,215.29 149.43,234.69 142.92,234.69 151.24,260.47 159.24,234.4 165.2,234.4 165.2,224.45 "/>
<polygon class="st0" points="111.5,225.32 103.6,277.95 119.01,277.95 "/>
<polygon class="st0" points="52.42,275.67 87.94,275.67 87.94,264.2 "/>
<polygon class="st0" points="52.42,245.64 87.94,256.89 87.94,245.64 "/>
<polygon class="st0" points="175.88,210.01 175.88,220.75 247.41,220.75 "/>
<polygon class="st0" points="166.92,242.44 155.67,277.95 166.92,277.95 "/>
<polygon class="st0" points="220.39,192.65 220.09,192.65 175.88,192.65 175.88,203.1 246.9,192.65 "/>
<polygon class="st0" points="326.31,254.93 306.91,245.67 306.91,239.15 281.14,247.47 307.2,255.48 307.2,261.44 317.15,261.44 "/>
<polygon class="st0" points="239.74,281.01 240.46,281.01 247.99,230.85 232.58,230.85 "/>
<polygon class="st0" points="263.65,251.91 263.65,263.16 299.16,263.16 "/>
<polygon class="st0" points="334.4,121.51 325.14,140.91 318.63,140.91 326.95,166.69 334.95,140.62 340.91,140.62 340.91,130.67 
	"/>
<polygon class="st0" points="263.65,233.13 263.65,244.6 299.16,233.13 "/>
<polygon class="st0" points="214.69,230.85 203.22,230.85 214.69,266.36 "/>
<polygon class="st0" points="195.91,230.85 184.66,230.85 184.66,266.36 "/>
<polygon class="st0" points="192.34,274.4 186.38,274.4 186.38,281.01 198.86,281.01 202.15,274.11 208.67,274.11 200.35,248.33 "/>
<polygon class="st0" points="248.46,281.01 253.56,281.01 253.56,247.08 "/>
<polygon class="st0" points="510.3,201.15 501.04,220.56 494.53,220.56 502.85,246.33 510.85,220.26 516.81,220.26 516.81,210.31 
	"/>
<polygon class="st0" points="376.89,239.74 396.29,249 396.29,255.51 422.06,247.19 395.99,239.18 395.99,233.23 386.04,233.23 "/>
<polygon class="st0" points="439.55,279.42 428.45,281.01 449.78,281.01 439.55,279.47 "/>
<polygon points="351.78,272.29 351.61,272.29 351.61,272.12 341.11,272.12 341.11,281.01 351.78,281.01 "/>
<polygon points="326.56,272.12 316.15,272.12 322.36,281.01 332.72,281.01 "/>
<rect x="302.04" y="272.12" width="10.84" height="8.89"/>
<polygon points="291.56,272.12 284.7,272.12 283.36,281.01 292.87,281.01 "/>
<rect x="263.84" y="272.12" width="10.09" height="8.89"/>
<polygon points="507.28,263.82 499.97,263.82 488.5,263.82 486.22,263.82 477.75,263.82 470.61,263.82 455.2,263.82 439.55,263.82 
	439.55,272.29 439.55,279.42 439.55,279.47 449.78,281.01 503.07,281.01 455.78,273.91 527.49,273.91 527.49,263.82 527.49,263.82 
	518.53,263.82 "/>
<polygon points="396.29,255.51 396.29,249 376.89,239.74 386.04,233.23 395.99,233.23 395.99,222.55 351.61,222.55 351.61,233.23 
	372.6,233.23 351.61,247.77 351.61,258.18 367.56,247.03 395.99,260.82 395.99,255.61 "/>
<polygon points="351.78,272.29 395.99,272.29 395.99,261.45 351.61,261.45 351.61,272.12 351.78,272.12 "/>
<rect x="351.61" y="272.12" width="0.17" height="0.17"/>
<polygon points="396.29,272.29 422.8,272.29 423.31,272.22 396.67,272.22 396.67,263.82 439.55,263.82 439.55,261.54 404.03,261.54 
	439.55,250.07 439.55,242.75 404.03,231.5 439.55,231.5 439.55,222.55 396.29,222.55 396.29,233.23 395.99,233.23 395.99,239.18 
	422.06,247.19 396.29,255.51 396.29,260.97 395.99,260.82 395.99,261.45 396.29,261.45 "/>
<rect x="395.99" y="222.55" width="0.3" height="10.67"/>
<polygon points="396.29,255.51 395.99,255.61 395.99,260.82 396.29,260.97 "/>
<rect x="395.99" y="261.45" width="0.3" height="10.84"/>
<polygon points="428.45,281.01 439.55,279.42 439.55,272.29 422.8,272.29 363.6,281.01 "/>
<polygon points="439.55,263.82 396.67,263.82 396.67,272.22 423.31,272.22 422.8,272.29 439.55,272.29 "/>
<polygon points="494.53,220.56 501.04,220.56 510.3,201.15 516.81,210.31 516.81,220.26 527.49,220.26 527.49,175.88 516.81,175.88 
	516.81,196.87 502.26,175.88 491.86,175.88 503,191.83 489.22,220.26 494.43,220.26 "/>
<rect x="477.75" y="175.88" width="10.84" height="44.38"/>
<polygon points="477.82,220.93 486.22,220.93 486.22,263.82 488.5,263.82 488.5,228.3 499.97,263.82 507.28,263.82 518.53,228.3 
	518.53,263.82 527.49,263.82 527.49,220.56 516.81,220.56 516.81,220.26 510.85,220.26 502.85,246.33 494.53,220.56 489.07,220.56 
	489.22,220.26 488.59,220.26 488.59,220.56 477.75,220.56 477.75,247.07 477.82,247.58 "/>
<rect x="516.81" y="220.26" width="10.67" height="0.3"/>
<polygon points="494.53,220.56 494.43,220.26 489.22,220.26 489.07,220.56 "/>
<rect x="477.75" y="220.26" width="10.84" height="0.3"/>
<polygon points="439.55,242.75 439.55,250.07 439.55,261.54 439.55,263.82 455.2,263.82 463.1,211.18 470.61,263.82 477.75,263.82 
	477.75,247.07 467.26,175.88 460.4,175.88 449.64,247.58 449.64,175.88 439.55,175.88 439.55,222.55 439.55,231.5 "/>
<polygon points="486.22,263.82 486.22,220.93 477.82,220.93 477.82,247.58 477.75,247.07 477.75,263.82 "/>
<polygon points="175.71,277.95 166.92,277.95 155.67,277.95 148.36,277.95 136.89,277.95 134.61,277.95 126.14,277.95 
	119.01,277.95 103.6,277.95 87.94,277.95 87.94,281.01 175.71,281.01 "/>
<polygon points="44.68,269.65 44.68,263.13 25.28,253.87 34.43,247.36 44.38,247.36 44.38,236.69 0,236.69 0,247.36 20.99,247.36 
	0,261.91 0,272.32 15.95,261.17 44.38,274.96 44.38,269.74 "/>
<rect y="275.59" width="44.38" height="5.42"/>
<polygon points="44.68,281.01 45.06,281.01 45.06,277.95 87.94,277.95 87.94,275.67 52.42,275.67 87.94,264.2 87.94,256.89 
	52.42,245.64 87.94,245.64 87.94,236.69 44.68,236.69 44.68,247.36 44.38,247.36 44.38,253.32 70.45,261.33 44.68,269.65 
	44.68,275.1 44.38,274.96 44.38,275.59 44.68,275.59 "/>
<polygon points="44.68,269.65 44.38,269.74 44.38,274.96 44.68,275.1 "/>
<rect x="44.38" y="236.69" width="0.3" height="10.67"/>
<rect x="44.38" y="275.59" width="0.3" height="5.42"/>
<rect x="45.06" y="277.95" width="42.88" height="3.05"/>
<polygon points="142.92,234.69 149.43,234.69 158.69,215.29 165.2,224.45 165.2,234.4 175.71,234.4 175.71,230.85 175.71,230.85 
	175.71,220.75 175.88,220.75 175.88,210.01 175.71,209.99 175.71,203.13 175.88,203.1 175.88,192.65 175.71,192.65 175.71,190.02 
	165.2,190.02 165.2,211.01 150.66,190.02 140.25,190.02 151.4,205.97 137.61,234.4 142.82,234.4 "/>
<rect x="126.14" y="190.02" width="10.84" height="44.38"/>
<polygon points="126.21,235.07 134.61,235.07 134.61,277.95 136.89,277.95 136.89,242.44 148.36,277.95 155.67,277.95 
	166.92,242.44 166.92,277.95 175.71,277.95 175.71,274.4 175.71,274.11 175.71,234.69 165.2,234.69 165.2,234.4 159.24,234.4 
	151.24,260.47 142.92,234.69 137.46,234.69 137.61,234.4 136.98,234.4 136.98,234.69 126.14,234.69 126.14,261.21 126.21,261.72 "/>
<rect x="165.2" y="234.4" width="10.51" height="0.3"/>
<polygon points="142.92,234.69 142.82,234.4 137.61,234.4 137.46,234.69 "/>
<rect x="126.14" y="234.4" width="10.84" height="0.3"/>
<polygon points="87.94,256.89 87.94,264.2 87.94,275.67 87.94,277.95 103.6,277.95 111.5,225.32 119.01,277.95 126.14,277.95 
	126.14,261.21 115.66,190.02 108.8,190.02 98.03,261.72 98.03,190.02 87.94,190.02 87.94,236.69 87.94,245.64 "/>
<polygon points="134.61,277.95 134.61,235.07 126.21,235.07 126.21,261.72 126.14,261.21 126.14,277.95 "/>
<polygon points="208.77,274.4 208.67,274.11 202.15,274.11 198.86,281.01 210.78,281.01 213.98,274.4 "/>
<polygon points="175.88,274.4 175.88,277.95 175.88,281.01 186.38,281.01 186.38,274.4 "/>
<rect x="175.71" y="277.95" width="0.17" height="3.05"/>
<rect x="175.71" y="274.4" width="0.17" height="3.55"/>
<rect x="214.61" y="274.4" width="10.84" height="6.6"/>
<polygon points="225.37,273.73 216.97,273.73 216.97,230.85 214.69,230.85 214.69,266.36 203.22,230.85 195.91,230.85 
	184.66,266.36 184.66,230.85 175.88,230.85 175.88,234.4 175.88,234.69 175.88,274.11 186.38,274.11 186.38,274.4 192.34,274.4 
	200.35,248.33 208.67,274.11 214.12,274.11 213.98,274.4 214.61,274.4 214.61,274.11 225.45,274.11 225.45,247.59 225.37,247.08 "/>
<rect x="175.71" y="230.85" width="0.17" height="3.55"/>
<rect x="175.71" y="234.69" width="0.17" height="39.41"/>
<rect x="175.71" y="234.4" width="0.17" height="0.3"/>
<polygon points="208.67,274.11 208.77,274.4 213.98,274.4 214.12,274.11 "/>
<rect x="175.88" y="274.11" width="10.51" height="0.3"/>
<rect x="175.71" y="274.11" width="0.17" height="0.3"/>
<rect x="214.61" y="274.11" width="10.84" height="0.3"/>
<polygon points="263.65,263.16 263.65,251.91 263.65,244.6 263.65,233.13 263.65,230.85 247.99,230.85 240.46,281.01 248.46,281.01 
	253.56,247.08 253.56,281.01 263.65,281.01 263.65,272.11 "/>
<polygon points="232.58,230.85 225.45,230.85 225.45,247.59 230.37,281.01 239.74,281.01 "/>
<polygon points="216.97,273.73 225.37,273.73 225.37,247.08 225.45,247.59 225.45,230.85 216.97,230.85 "/>
<polygon points="306.91,239.15 306.91,245.67 326.31,254.93 317.15,261.44 307.2,261.44 307.2,272.11 351.59,272.11 351.59,261.44 
	330.6,261.44 351.59,246.89 351.59,236.48 335.64,247.63 307.2,233.84 307.2,239.06 "/>
<rect x="307.2" y="222.37" width="44.38" height="10.84"/>
<polygon points="306.53,222.45 306.53,230.85 263.65,230.85 263.65,233.13 299.16,233.13 263.65,244.6 263.65,251.91 299.16,263.16 
	263.65,263.16 263.65,272.11 306.91,272.11 306.91,261.44 307.2,261.44 307.2,255.48 281.14,247.47 306.91,239.15 306.91,233.7 
	307.2,233.84 307.2,233.21 306.91,233.21 306.91,222.37 280.39,222.37 279.88,222.45 "/>
<rect x="306.91" y="261.44" width="0.3" height="10.67"/>
<polygon points="306.91,239.15 307.2,239.06 307.2,233.84 306.91,233.7 "/>
<rect x="306.91" y="222.37" width="0.3" height="10.84"/>
<polygon points="331.38,184.17 324.07,184.17 312.6,184.17 310.32,184.17 301.85,184.17 294.72,184.17 279.31,184.17 263.65,184.17 
	263.65,192.65 263.65,199.78 263.65,199.83 316.28,207.73 263.65,215.24 263.65,222.37 280.39,222.37 351.59,211.89 351.59,205.03 
	279.88,194.27 351.59,194.27 351.59,184.17 342.63,184.17 "/>
<polygon points="263.65,230.85 306.53,230.85 306.53,222.45 279.88,222.45 280.39,222.37 263.65,222.37 "/>
<polygon points="220.39,175.87 220.39,169.35 200.99,160.09 210.14,153.58 220.09,153.58 220.09,142.91 175.71,142.91 
	175.71,153.58 196.7,153.58 175.71,168.13 175.71,178.53 191.66,167.39 220.09,181.18 220.09,175.96 "/>
<polygon points="175.88,192.65 220.09,192.65 220.09,181.8 175.71,181.8 175.71,190.02 175.88,190.02 "/>
<rect x="175.71" y="190.02" width="0.17" height="2.63"/>
<polygon points="220.39,192.65 246.9,192.65 247.41,192.57 220.77,192.57 220.77,184.17 263.65,184.17 263.65,181.89 228.13,181.89 
	263.65,170.42 263.65,163.11 228.13,151.86 263.65,151.86 263.65,142.91 220.39,142.91 220.39,153.58 220.09,153.58 220.09,159.54 
	246.16,167.54 220.39,175.87 220.39,181.32 220.09,181.18 220.09,181.8 220.39,181.8 "/>
<polygon points="220.39,175.87 220.09,175.96 220.09,181.18 220.39,181.32 "/>
<rect x="220.09" y="142.91" width="0.3" height="10.67"/>
<rect x="220.09" y="181.8" width="0.3" height="10.84"/>
<polygon points="263.65,215.24 263.65,215.19 211.01,207.29 263.65,199.78 263.65,192.65 246.9,192.65 175.88,203.1 175.88,210.01 
	247.41,220.75 175.88,220.75 175.88,230.85 184.66,230.85 195.91,230.85 203.22,230.85 214.69,230.85 216.97,230.85 225.45,230.85 
	232.58,230.85 247.99,230.85 263.65,230.85 263.65,222.37 "/>
<polygon points="175.71,203.13 175.71,209.99 175.88,210.01 175.88,203.1 "/>
<polygon points="175.88,220.75 175.71,220.75 175.71,230.85 175.71,230.85 175.88,230.85 "/>
<polygon points="263.65,184.17 220.77,184.17 220.77,192.57 247.41,192.57 246.9,192.65 263.65,192.65 "/>
<polygon points="318.63,140.91 325.14,140.91 334.4,121.51 340.91,130.67 340.91,140.62 351.59,140.62 351.59,96.23 340.91,96.23 
	340.91,117.22 326.37,96.23 315.96,96.23 327.11,112.18 313.32,140.62 318.53,140.62 "/>
<rect x="301.85" y="96.23" width="10.84" height="44.38"/>
<polygon points="301.92,141.29 310.32,141.29 310.32,184.17 312.6,184.17 312.6,148.66 324.07,184.17 331.38,184.17 342.63,148.66 
	342.63,184.17 351.59,184.17 351.59,140.91 340.91,140.91 340.91,140.62 334.95,140.62 326.95,166.69 318.63,140.91 313.17,140.91 
	313.32,140.62 312.69,140.62 312.69,140.91 301.85,140.91 301.85,167.43 301.92,167.94 "/>
<polygon points="318.63,140.91 318.53,140.62 313.32,140.62 313.17,140.91 "/>
<rect x="340.91" y="140.62" width="10.67" height="0.3"/>
<rect x="301.85" y="140.62" width="10.84" height="0.3"/>
<polygon points="263.65,163.11 263.65,170.42 263.65,181.89 263.65,184.17 279.31,184.17 287.21,131.54 294.72,184.17 
	301.85,184.17 301.85,167.43 291.37,96.23 284.51,96.23 273.74,167.94 273.74,96.23 263.65,96.23 263.65,142.91 263.65,151.86 "/>
<polygon points="310.32,184.17 310.32,141.29 301.92,141.29 301.92,167.94 301.85,167.43 301.85,184.17 "/>
</svg>
