<?xml version="1.0" encoding="utf-8"?>
<!-- Generator: Adobe Illustrator 19.0.0, SVG Export Plug-In . SVG Version: 6.00 Build 0)  -->
<svg version="1.1" id="Laag_1" xmlns="http://www.w3.org/2000/svg" xmlns:xlink="http://www.w3.org/1999/xlink" x="0px" y="0px"
	 viewBox="0 0 595.3 841.9" style="enable-background:new 0 0 595.3 841.9;" xml:space="preserve">
<g id="XMLID_999_">
	<g id="XMLID_998_">
		<path id="XMLID_1046_" d="M210.1,557.3v-44.7h10.7v10.2l6.5,9.2l9.3-19.4h12l-13.9,28.7l11.1,16h-10.4l-14.5-21v21H210.1z"/>
		<path id="XMLID_1043_" d="M249,557.3v-44.7h10.8v44.7H249z"/>
		<path id="XMLID_1041_" d="M237.6,469.3l11.5,35.5v-35.5h10.8v43.6h-16.7l-8.4-26.1l-8,26.1h-16.6v-43.6h9v35.5l11.3-35.5H237.6z"
			/>
		<path id="XMLID_1039_" d="M270.3,557.3l-10.6-71.7v26.6h-8.4v-42.9h15.6l7.5,52.6l7.9-52.6H298v87.9h-10.1v-71.7l-10.8,71.7H270.3
			z"/>
	</g>
	<g id="XMLID_1000_">
		<path id="XMLID_1050_" d="M385.9,510.6h-44.7v-10.7h10.2l9.2-6.5l-19.4-9.3v-12l28.7,13.9l16-11.1v10.4l-21,14.5h21V510.6z"/>
		<path id="XMLID_1022_" d="M385.9,471.7h-44.7v-10.8h44.7V471.7z"/>
		<path id="XMLID_1003_" d="M298,483.1l35.5-11.5H298v-10.8h43.6v16.7l-26.1,8.4l26.1,8v16.6H298v-9h35.5L298,490.4V483.1z"/>
		<path id="XMLID_1001_" d="M385.9,450.4l-71.7,10.6h26.6v8.4H298v-15.6l52.6-7.5l-52.6-7.9v-15.7h87.9v10.1h-71.7l71.7,10.8V450.4z
			"/>
	</g>
	<g id="XMLID_1066_">
		<path id="XMLID_1073_" d="M210.1,381.4h44.7v10.7h-10.2l-9.2,6.5l19.4,9.3v12L226,405.9l-16,11.1v-10.4l21-14.5h-21V381.4z"/>
		<path id="XMLID_1071_" d="M210.1,420.3h44.7v10.8h-44.7V420.3z"/>
		<path id="XMLID_1069_" d="M298,408.9l-35.5,11.5H298v10.8h-43.6v-16.7l26.1-8.4l-26.1-8v-16.6H298v9h-35.5l35.5,11.3V408.9z"/>
		<path id="XMLID_1067_" d="M210.1,441.6l71.7-10.6h-26.6v-8.4H298v15.6l-52.6,7.5l52.6,7.9v15.7h-87.9v-10.1h71.7l-71.7-10.8V441.6
			z"/>
	</g>
	<g id="XMLID_1052_">
		<path id="XMLID_1059_" d="M385.9,334.7v44.7h-10.7v-10.2l-6.5-9.2l-9.3,19.4h-12l13.9-28.7l-11.1-16h10.4l14.5,21v-21H385.9z"/>
		<path id="XMLID_1057_" d="M347.1,334.7v44.7h-10.8v-44.7H347.1z"/>
		<path id="XMLID_1055_" d="M358.4,422.7L347,387.1v35.5h-10.8v-43.6h16.7l8.4,26.1l8-26.1h16.6v43.6h-9v-35.5l-11.3,35.5H358.4z"/>
		<path id="XMLID_1053_" d="M325.7,334.7l10.6,71.7v-26.6h8.4v42.9h-15.6l-7.5-52.6l-7.9,52.6H298v-87.9h10.1v71.7l10.8-71.7H325.7z
			"/>
	</g>
</g>
<g id="XMLID_3_">
	<g id="XMLID_67_">
		<path id="XMLID_74_" d="M210.1,733.3v-44.7h10.7v10.2l6.5,9.2l9.3-19.4h12l-13.9,28.7l11.1,16h-10.4l-14.5-21v21H210.1z"/>
		<path id="XMLID_72_" d="M249,733.3v-44.7h10.8v44.7H249z"/>
		<path id="XMLID_70_" d="M237.6,645.3l11.5,35.5v-35.5h10.8v43.6h-16.7l-8.4-26.1l-8,26.1h-16.6v-43.6h9v35.5l11.3-35.5H237.6z"/>
		<path id="XMLID_68_" d="M270.3,733.3l-10.6-71.7v26.6h-8.4v-42.9h15.6l7.5,52.6l7.9-52.6H298v87.9h-10.1v-71.7l-10.8,71.7H270.3z"
			/>
	</g>
	<g id="XMLID_58_">
		<path id="XMLID_65_" d="M385.9,686.6h-44.7v-10.7h10.2l9.2-6.5l-19.4-9.3v-12l28.7,13.9l16-11.1v10.4l-21,14.5h21V686.6z"/>
		<path id="XMLID_63_" d="M385.9,647.7h-44.7v-10.8h44.7V647.7z"/>
		<path id="XMLID_61_" d="M298,659.1l35.5-11.5H298v-10.8h43.6v16.7l-26.1,8.4l26.1,8v16.6H298v-9h35.5L298,666.4V659.1z"/>
		<path id="XMLID_59_" d="M385.9,626.4l-71.7,10.6h26.6v8.4H298v-15.6l52.6-7.5l-52.6-7.9v-15.7h87.9v10.1h-71.7l71.7,10.8V626.4z"
			/>
	</g>
	<g id="XMLID_40_">
		<path id="XMLID_47_" d="M210.1,557.4h44.7v10.7h-10.2l-9.2,6.5l19.4,9.3v12L226,581.9l-16,11.1v-10.4l21-14.5h-21V557.4z"/>
		<path id="XMLID_45_" d="M210.1,596.3h44.7v10.8h-44.7V596.3z"/>
		<path id="XMLID_43_" d="M298,584.9l-35.5,11.5H298v10.8h-43.6v-16.7l26.1-8.4l-26.1-8v-16.6H298v9h-35.5l35.5,11.3V584.9z"/>
		<path id="XMLID_41_" d="M210.1,617.6l71.7-10.6h-26.6v-8.4H298v15.6l-52.6,7.5l52.6,7.9v15.7h-87.9v-10.1h71.7l-71.7-10.8V617.6z"
			/>
	</g>
	<g id="XMLID_4_">
		<path id="XMLID_11_" d="M385.9,510.7v44.7h-10.7v-10.2l-6.5-9.2l-9.3,19.4h-12l13.9-28.7l-11.1-16h10.4l14.5,21v-21H385.9z"/>
		<path id="XMLID_9_" d="M347.1,510.7v44.7h-10.8v-44.7H347.1z"/>
		<path id="XMLID_7_" d="M358.4,598.7L347,563.1v35.5h-10.8v-43.6h16.7l8.4,26.1l8-26.1h16.6v43.6h-9v-35.5l-11.3,35.5H358.4z"/>
		<path id="XMLID_5_" d="M325.7,510.7l10.6,71.7v-26.6h8.4v42.9h-15.6l-7.5-52.6l-7.9,52.6H298v-87.9h10.1v71.7l10.8-71.7H325.7z"/>
	</g>
</g>
<g id="XMLID_1375_">
	<g id="XMLID_1403_">
		<path id="XMLID_1410_" d="M385.9,460.9v-44.7h10.7v10.2l6.5,9.2l9.3-19.4h12l-13.9,28.7l11.1,16h-10.4l-14.5-21v21H385.9z"/>
		<path id="XMLID_1408_" d="M424.8,460.9v-44.7h10.8v44.7H424.8z"/>
		<path id="XMLID_1406_" d="M413.5,372.9l11.5,35.5v-35.5h10.8v43.6H419l-8.4-26.1l-8,26.1h-16.6v-43.6h9v35.5l11.3-35.5H413.5z"/>
		<path id="XMLID_1404_" d="M446.2,460.9l-10.6-71.7v26.6h-8.4v-42.9h15.6l7.5,52.6l7.9-52.6h15.7v87.9h-10.1v-71.7L453,460.9H446.2
			z"/>
	</g>
	<g id="XMLID_1394_">
		<path id="XMLID_1401_" d="M561.8,414.2h-44.7v-10.7h10.2l9.2-6.5l-19.4-9.3v-12l28.7,13.9l16-11.1V389l-21,14.5h21V414.2z"/>
		<path id="XMLID_1399_" d="M561.8,375.3h-44.7v-10.8h44.7V375.3z"/>
		<path id="XMLID_1397_" d="M473.9,386.7l35.5-11.5h-35.5v-10.8h43.6v16.7l-26.1,8.4l26.1,8v16.6h-43.6v-9h35.5L473.9,394V386.7z"/>
		<path id="XMLID_1395_" d="M561.8,354l-71.7,10.6h26.6v8.4h-42.9v-15.6l52.6-7.5l-52.6-7.9v-15.7h87.9v10.1h-71.7l71.7,10.8V354z"
			/>
	</g>
	<g id="XMLID_1385_">
		<path id="XMLID_1392_" d="M385.9,285h44.7v10.7h-10.2l-9.2,6.5l19.4,9.3v12l-28.7-13.9l-16,11.1v-10.4l21-14.5h-21V285z"/>
		<path id="XMLID_1390_" d="M385.9,323.9h44.7v10.8h-44.7V323.9z"/>
		<path id="XMLID_1388_" d="M473.9,312.5L438.4,324h35.5v10.8h-43.6V318l26.1-8.4l-26.1-8V285h43.6v9h-35.5l35.5,11.3V312.5z"/>
		<path id="XMLID_1386_" d="M385.9,345.2l71.7-10.6H431v-8.4h42.9v15.6l-52.6,7.5l52.6,7.9v15.7h-87.9v-10.1h71.7l-71.7-10.8V345.2z
			"/>
	</g>
	<g id="XMLID_1376_">
		<path id="XMLID_1383_" d="M561.8,238.3V283h-10.7v-10.2l-6.5-9.2l-9.3,19.4h-12l13.9-28.7l-11.1-16h10.4l14.5,21v-21H561.8z"/>
		<path id="XMLID_1381_" d="M522.9,238.3V283h-10.8v-44.7H522.9z"/>
		<path id="XMLID_1379_" d="M534.3,326.2l-11.5-35.5v35.5h-10.8v-43.6h16.7l8.4,26.1l8-26.1h16.6v43.6h-9v-35.5l-11.3,35.5H534.3z"
			/>
		<path id="XMLID_1377_" d="M501.6,238.3l10.6,71.7v-26.6h8.4v42.9H505l-7.5-52.6l-7.9,52.6h-15.7v-87.9H484V310l10.8-71.7H501.6z"
			/>
	</g>
</g>
<g id="XMLID_2_">
	<g id="XMLID_48_">
		<path id="XMLID_55_" d="M385.9,637.1v-44.7h10.7v10.2l6.5,9.2l9.3-19.4h12l-13.9,28.7l11.1,16h-10.4l-14.5-21v21H385.9z"/>
		<path id="XMLID_53_" d="M424.8,637.1v-44.7h10.8v44.7H424.8z"/>
		<path id="XMLID_51_" d="M413.5,549.2l11.5,35.5v-35.5h10.8v43.6H419l-8.4-26.1l-8,26.1h-16.6v-43.6h9v35.5l11.3-35.5H413.5z"/>
		<path id="XMLID_49_" d="M446.2,637.1l-10.6-71.7V592h-8.4v-42.9h15.6l7.5,52.6l7.9-52.6h15.7v87.9h-10.1v-71.7L453,637.1H446.2z"
			/>
	</g>
	<g id="XMLID_30_">
		<path id="XMLID_37_" d="M561.8,590.4h-44.7v-10.7h10.2l9.2-6.5l-19.4-9.3v-12l28.7,13.9l16-11.1v10.4l-21,14.5h21V590.4z"/>
		<path id="XMLID_35_" d="M561.8,551.5h-44.7v-10.8h44.7V551.5z"/>
		<path id="XMLID_33_" d="M473.9,562.9l35.5-11.5h-35.5v-10.8h43.6v16.7l-26.1,8.4l26.1,8v16.6h-43.6v-9h35.5l-35.5-11.3V562.9z"/>
		<path id="XMLID_31_" d="M561.8,530.2l-71.7,10.6h26.6v8.4h-42.9v-15.6l52.6-7.5l-52.6-7.9v-15.7h87.9v10.1h-71.7l71.7,10.8V530.2z
			"/>
	</g>
	<g id="XMLID_21_">
		<path id="XMLID_28_" d="M385.9,461.2h44.7v10.7h-10.2l-9.2,6.5l19.4,9.3v12l-28.7-13.9l-16,11.1v-10.4l21-14.5h-21V461.2z"/>
		<path id="XMLID_26_" d="M385.9,500.1h44.7V511h-44.7V500.1z"/>
		<path id="XMLID_24_" d="M473.9,488.7l-35.5,11.5h35.5V511h-43.6v-16.7l26.1-8.4l-26.1-8v-16.6h43.6v9h-35.5l35.5,11.3V488.7z"/>
		<path id="XMLID_22_" d="M385.9,521.4l71.7-10.6H431v-8.4h42.9v15.6l-52.6,7.5l52.6,7.9v15.7h-87.9v-10.1h71.7l-71.7-10.8V521.4z"
			/>
	</g>
	<g id="XMLID_12_">
		<path id="XMLID_19_" d="M561.8,414.6v44.7h-10.7V449l-6.5-9.2l-9.3,19.4h-12l13.9-28.7l-11.1-16h10.4l14.5,21v-21H561.8z"/>
		<path id="XMLID_17_" d="M522.9,414.6v44.7h-10.8v-44.7H522.9z"/>
		<path id="XMLID_15_" d="M534.3,502.5L522.8,467v35.5h-10.8v-43.6h16.7l8.4,26.1l8-26.1h16.6v43.6h-9V467l-11.3,35.5H534.3z"/>
		<path id="XMLID_13_" d="M501.6,414.6l10.6,71.7v-26.6h8.4v42.9H505l-7.5-52.6l-7.9,52.6h-15.7v-87.9H484v71.7l10.8-71.7H501.6z"/>
	</g>
</g>
<g id="XMLID_1191_">
	<g id="XMLID_1227_">
		<path id="XMLID_1260_" d="M34,650.7V606h10.7v10.2l6.5,9.2l9.3-19.4h12l-13.9,28.7l11.1,16H59.2l-14.5-21v21H34z"/>
		<path id="XMLID_1245_" d="M72.9,650.7V606h10.8v44.7H72.9z"/>
		<path id="XMLID_1243_" d="M61.5,562.8L73,598.3v-35.5h10.8v43.6H67l-8.4-26.1l-8,26.1H34v-43.6h9v35.5l11.3-35.5H61.5z"/>
		<path id="XMLID_1228_" d="M94.2,650.7L83.7,579v26.6h-8.4v-42.9h15.6l7.5,52.6l7.9-52.6h15.7v87.9h-10.1V579l-10.8,71.7H94.2z"/>
	</g>
	<g id="XMLID_1210_">
		<path id="XMLID_1217_" d="M209.9,604h-44.7v-10.7h10.2l9.2-6.5l-19.4-9.3v-12l28.7,13.9l16-11.1v10.4l-21,14.5h21V604z"/>
		<path id="XMLID_1215_" d="M209.9,565.2h-44.7v-10.8h44.7V565.2z"/>
		<path id="XMLID_1213_" d="M121.9,576.5l35.5-11.5h-35.5v-10.8h43.6V571l-26.1,8.4l26.1,8V604h-43.6v-9h35.5l-35.5-11.3V576.5z"/>
		<path id="XMLID_1211_" d="M209.9,543.8l-71.7,10.6h26.6v8.4h-42.9v-15.6l52.6-7.5l-52.6-7.9v-15.7h87.9v10.1h-71.7l71.7,10.8
			V543.8z"/>
	</g>
	<g id="XMLID_1201_">
		<path id="XMLID_1208_" d="M34,474.8h44.7v10.7H68.4l-9.2,6.5l19.4,9.3v12l-28.7-13.9l-16,11.1v-10.4l21-14.5H34V474.8z"/>
		<path id="XMLID_1206_" d="M34,513.7h44.7v10.8H34V513.7z"/>
		<path id="XMLID_1204_" d="M121.9,502.4l-35.5,11.5h35.5v10.8H78.4v-16.7l26.1-8.4l-26.1-8v-16.6h43.6v9H86.4l35.5,11.3V502.4z"/>
		<path id="XMLID_1202_" d="M34,535.1l71.7-10.6H79v-8.4h42.9v15.6l-52.6,7.5l52.6,7.9v15.7H34v-10.1h71.7L34,541.9V535.1z"/>
	</g>
	<g id="XMLID_1192_">
		<path id="XMLID_1199_" d="M209.9,428.2v44.7h-10.7v-10.2l-6.5-9.2l-9.3,19.4h-12l13.9-28.7l-11.1-16h10.4l14.5,21v-21H209.9z"/>
		<path id="XMLID_1197_" d="M171,428.2v44.7h-10.8v-44.7H171z"/>
		<path id="XMLID_1195_" d="M182.4,516.1l-11.5-35.5v35.5h-10.8v-43.6h16.7l8.4,26.1l8-26.1h16.6v43.6h-9v-35.5l-11.3,35.5H182.4z"
			/>
		<path id="XMLID_1193_" d="M149.6,428.2l10.6,71.7v-26.6h8.4v42.9H153l-7.5-52.6l-7.9,52.6h-15.7v-87.9H132v71.7l10.8-71.7H149.6z"
			/>
	</g>
</g>
<g id="XMLID_76_">
	<g id="XMLID_104_">
		<path id="XMLID_111_" d="M34,826.5v-44.7h10.7V792l6.5,9.2l9.3-19.4h12l-13.9,28.7l11.1,16H59.2l-14.5-21v21H34z"/>
		<path id="XMLID_109_" d="M72.9,826.5v-44.7h10.8v44.7H72.9z"/>
		<path id="XMLID_107_" d="M61.5,738.5L73,774.1v-35.5h10.8v43.6H67L58.6,756l-8,26.1H34v-43.6h9v35.5l11.3-35.5H61.5z"/>
		<path id="XMLID_105_" d="M94.2,826.5l-10.6-71.7v26.6h-8.4v-42.9h15.6l7.5,52.6l7.9-52.6h15.7v87.9h-10.1v-71.7l-10.8,71.7H94.2z"
			/>
	</g>
	<g id="XMLID_95_">
		<path id="XMLID_102_" d="M209.9,779.8h-44.7v-10.7h10.2l9.2-6.5l-19.4-9.3v-12l28.7,13.9l16-11.1v10.4l-21,14.5h21V779.8z"/>
		<path id="XMLID_100_" d="M209.9,740.9h-44.7v-10.8h44.7V740.9z"/>
		<path id="XMLID_98_" d="M121.9,752.3l35.5-11.5h-35.5v-10.8h43.6v16.7l-26.1,8.4l26.1,8v16.6h-43.6v-9h35.5l-35.5-11.3V752.3z"/>
		<path id="XMLID_96_" d="M209.9,719.6l-71.7,10.6h26.6v8.4h-42.9v-15.6l52.6-7.5l-52.6-7.9v-15.7h87.9V702h-71.7l71.7,10.8V719.6z"
			/>
	</g>
	<g id="XMLID_86_">
		<path id="XMLID_93_" d="M34,650.6h44.7v10.7H68.4l-9.2,6.5l19.4,9.3v12l-28.7-13.9l-16,11.1v-10.4l21-14.5H34V650.6z"/>
		<path id="XMLID_91_" d="M34,689.5h44.7v10.8H34V689.5z"/>
		<path id="XMLID_89_" d="M121.9,678.1l-35.5,11.5h35.5v10.8H78.4v-16.7l26.1-8.4l-26.1-8v-16.6h43.6v9H86.4l35.5,11.3V678.1z"/>
		<path id="XMLID_87_" d="M34,710.8l71.7-10.6H79v-8.4h42.9v15.6L69.3,715l52.6,7.9v15.7H34v-10.1h71.7L34,717.7V710.8z"/>
	</g>
	<g id="XMLID_77_">
		<path id="XMLID_84_" d="M209.9,603.9v44.7h-10.7v-10.2l-6.5-9.2l-9.3,19.4h-12l13.9-28.7l-11.1-16h10.4l14.5,21v-21H209.9z"/>
		<path id="XMLID_82_" d="M171,603.9v44.7h-10.8v-44.7H171z"/>
		<path id="XMLID_80_" d="M182.4,691.9l-11.5-35.5v35.5h-10.8v-43.6h16.7l8.4,26.1l8-26.1h16.6v43.6h-9v-35.5l-11.3,35.5H182.4z"/>
		<path id="XMLID_78_" d="M149.6,603.9l10.6,71.7V649h8.4v42.9H153l-7.5-52.6l-7.9,52.6h-15.7v-87.9H132v71.7l10.8-71.7H149.6z"/>
	</g>
</g>
<g id="XMLID_1275_">
	<g id="XMLID_1329_">
		<path id="XMLID_1336_" d="M34,474.8v-44.7h10.7v10.2l6.5,9.2l9.3-19.4h12l-13.9,28.7l11.1,16H59.2l-14.5-21v21H34z"/>
		<path id="XMLID_1334_" d="M72.9,474.8v-44.7h10.8v44.7H72.9z"/>
		<path id="XMLID_1332_" d="M61.5,386.9L73,422.4v-35.5h10.8v43.6H67l-8.4-26.1l-8,26.1H34v-43.6h9v35.5l11.3-35.5H61.5z"/>
		<path id="XMLID_1330_" d="M94.2,474.8l-10.6-71.7v26.6h-8.4v-42.9h15.6l7.5,52.6l7.9-52.6h15.7v87.9h-10.1v-71.7l-10.8,71.7H94.2z
			"/>
	</g>
	<g id="XMLID_1320_">
		<path id="XMLID_1327_" d="M209.9,428.2h-44.7v-10.7h10.2l9.2-6.5l-19.4-9.3v-12l28.7,13.9l16-11.1V403l-21,14.5h21V428.2z"/>
		<path id="XMLID_1325_" d="M209.9,389.3h-44.7v-10.8h44.7V389.3z"/>
		<path id="XMLID_1323_" d="M121.9,400.7l35.5-11.5h-35.5v-10.8h43.6v16.7l-26.1,8.4l26.1,8v16.6h-43.6v-9h35.5L121.9,408V400.7z"/>
		<path id="XMLID_1321_" d="M209.9,368l-71.7,10.6h26.6v8.4h-42.9v-15.6l52.6-7.5l-52.6-7.9v-15.7h87.9v10.1h-71.7l71.7,10.8V368z"
			/>
	</g>
	<g id="XMLID_1311_">
		<path id="XMLID_1318_" d="M34,299h44.7v10.7H68.4l-9.2,6.5l19.4,9.3v12l-28.7-13.9l-16,11.1v-10.4l21-14.5H34V299z"/>
		<path id="XMLID_1316_" d="M34,337.9h44.7v10.8H34V337.9z"/>
		<path id="XMLID_1314_" d="M121.9,326.5L86.4,338h35.5v10.8H78.4V332l26.1-8.4l-26.1-8V299h43.6v9H86.4l35.5,11.3V326.5z"/>
		<path id="XMLID_1312_" d="M34,359.2l71.7-10.6H79v-8.4h42.9v15.6l-52.6,7.5l52.6,7.9v15.7H34v-10.1h71.7L34,366.1V359.2z"/>
	</g>
	<g id="XMLID_1276_">
		<path id="XMLID_1309_" d="M209.9,252.3V297h-10.7v-10.2l-6.5-9.2l-9.3,19.4h-12l13.9-28.7l-11.1-16h10.4l14.5,21v-21H209.9z"/>
		<path id="XMLID_1307_" d="M171,252.3V297h-10.8v-44.7H171z"/>
		<path id="XMLID_1292_" d="M182.4,340.2l-11.5-35.5v35.5h-10.8v-43.6h16.7l8.4,26.1l8-26.1h16.6v43.6h-9v-35.5l-11.3,35.5H182.4z"
			/>
		<path id="XMLID_1277_" d="M149.6,252.3l10.6,71.7v-26.6h8.4v42.9H153l-7.5-52.6l-7.9,52.6h-15.7v-87.9H132V324l10.8-71.7H149.6z"
			/>
	</g>
</g>
<g id="XMLID_1338_">
	<g id="XMLID_1366_">
		<path id="XMLID_1373_" d="M209.9,381.4v-44.7h10.7V347l6.5,9.2l9.3-19.4h12l-13.9,28.7l11.1,16h-10.4l-14.5-21v21H209.9z"/>
		<path id="XMLID_1371_" d="M248.8,381.4v-44.7h10.8v44.7H248.8z"/>
		<path id="XMLID_1369_" d="M237.4,293.5l11.5,35.5v-35.5h10.8V337h-16.7l-8.4-26.1l-8,26.1h-16.6v-43.6h9V329l11.3-35.5H237.4z"/>
		<path id="XMLID_1367_" d="M270.1,381.4l-10.6-71.7v26.6h-8.4v-42.9h15.6l7.5,52.6l7.9-52.6h15.7v87.9h-10.1v-71.7L277,381.4H270.1
			z"/>
	</g>
	<g id="XMLID_1357_">
		<path id="XMLID_1364_" d="M385.7,334.7h-44.7V324h10.2l9.2-6.5l-19.4-9.3v-12l28.7,13.9l16-11.1v10.4l-21,14.5h21V334.7z"/>
		<path id="XMLID_1362_" d="M385.7,295.8h-44.7V285h44.7V295.8z"/>
		<path id="XMLID_1360_" d="M297.8,307.2l35.5-11.5h-35.5V285h43.6v16.7l-26.1,8.4l26.1,8v16.6h-43.6v-9h35.5l-35.5-11.3V307.2z"/>
		<path id="XMLID_1358_" d="M385.7,274.5L314,285.1h26.6v8.4h-42.9v-15.6l52.6-7.5l-52.6-7.9v-15.7h87.9v10.1H314l71.7,10.8V274.5z"
			/>
	</g>
	<g id="XMLID_1348_">
		<path id="XMLID_1355_" d="M209.9,205.5h44.7v10.7h-10.2l-9.2,6.5l19.4,9.3v12L225.8,230l-16,11.1v-10.4l21-14.5h-21V205.5z"/>
		<path id="XMLID_1353_" d="M209.9,244.4h44.7v10.8h-44.7V244.4z"/>
		<path id="XMLID_1351_" d="M297.8,233l-35.5,11.5h35.5v10.8h-43.6v-16.7l26.1-8.4l-26.1-8v-16.6h43.6v9h-35.5l35.5,11.3V233z"/>
		<path id="XMLID_1349_" d="M209.9,265.7l71.7-10.6h-26.6v-8.4h42.9v15.6l-52.6,7.5l52.6,7.9v15.7h-87.9v-10.1h71.7l-71.7-10.8
			V265.7z"/>
	</g>
	<g id="XMLID_1339_">
		<path id="XMLID_1346_" d="M385.7,158.8v44.7h-10.7v-10.2l-6.5-9.2l-9.3,19.4h-12l13.9-28.7l-11.1-16h10.4l14.5,21v-21H385.7z"/>
		<path id="XMLID_1344_" d="M346.9,158.8v44.7H336v-44.7H346.9z"/>
		<path id="XMLID_1342_" d="M358.2,246.8l-11.5-35.5v35.5H336v-43.6h16.7l8.4,26.1l8-26.1h16.6v43.6h-9v-35.5l-11.3,35.5H358.2z"/>
		<path id="XMLID_1340_" d="M325.5,158.8l10.6,71.7v-26.6h8.4v42.9h-15.6l-7.5-52.6l-7.9,52.6h-15.7v-87.9h10.1v71.7l10.8-71.7
			H325.5z"/>
	</g>
</g>
<g id="XMLID_1412_">
	<g id="XMLID_1440_">
		<path id="XMLID_1447_" d="M385.9,285v-44.7h10.7v10.2l6.5,9.2l9.3-19.4h12L410.4,269l11.1,16h-10.4l-14.5-21v21H385.9z"/>
		<path id="XMLID_1445_" d="M424.8,285v-44.7h10.8V285H424.8z"/>
		<path id="XMLID_1443_" d="M413.5,197l11.5,35.5V197h10.8v43.6H419l-8.4-26.1l-8,26.1h-16.6V197h9v35.5l11.3-35.5H413.5z"/>
		<path id="XMLID_1441_" d="M446.2,285l-10.6-71.7v26.6h-8.4V197h15.6l7.5,52.6l7.9-52.6h15.7V285h-10.1v-71.7L453,285H446.2z"/>
	</g>
	<g id="XMLID_1431_">
		<path id="XMLID_1438_" d="M561.8,238.3h-44.7v-10.7h10.2l9.2-6.5l-19.4-9.3v-12l28.7,13.9l16-11.1v10.4l-21,14.5h21V238.3z"/>
		<path id="XMLID_1436_" d="M561.8,199.4h-44.7v-10.8h44.7V199.4z"/>
		<path id="XMLID_1434_" d="M473.9,210.8l35.5-11.5h-35.5v-10.8h43.6v16.7l-26.1,8.4l26.1,8v16.6h-43.6v-9h35.5l-35.5-11.3V210.8z"
			/>
		<path id="XMLID_1432_" d="M561.8,178.1l-71.7,10.6h26.6v8.4h-42.9v-15.6l52.6-7.5l-52.6-7.9v-15.7h87.9v10.1h-71.7l71.7,10.8
			V178.1z"/>
	</g>
	<g id="XMLID_1422_">
		<path id="XMLID_1429_" d="M385.9,109.1h44.7v10.7h-10.2l-9.2,6.5l19.4,9.3v12l-28.7-13.9l-16,11.1v-10.4l21-14.5h-21V109.1z"/>
		<path id="XMLID_1427_" d="M385.9,148h44.7v10.8h-44.7V148z"/>
		<path id="XMLID_1425_" d="M473.9,136.6l-35.5,11.5h35.5v10.8h-43.6v-16.7l26.1-8.4l-26.1-8v-16.6h43.6v9h-35.5l35.5,11.3V136.6z"
			/>
		<path id="XMLID_1423_" d="M385.9,169.3l71.7-10.6H431v-8.4h42.9V166l-52.6,7.5l52.6,7.9V197h-87.9v-10.1h71.7l-71.7-10.8V169.3z"
			/>
	</g>
	<g id="XMLID_1413_">
		<path id="XMLID_1420_" d="M561.8,62.4v44.7h-10.7V96.9l-6.5-9.2l-9.3,19.4h-12l13.9-28.7l-11.1-16h10.4l14.5,21v-21H561.8z"/>
		<path id="XMLID_1418_" d="M522.9,62.4v44.7h-10.8V62.4H522.9z"/>
		<path id="XMLID_1416_" d="M534.3,150.4l-11.5-35.5v35.5h-10.8v-43.6h16.7l8.4,26.1l8-26.1h16.6v43.6h-9v-35.5l-11.3,35.5H534.3z"
			/>
		<path id="XMLID_1414_" d="M501.6,62.4l10.6,71.7v-26.6h8.4v42.9H505l-7.5-52.6l-7.9,52.6h-15.7V62.4H484v71.7l10.8-71.7H501.6z"/>
	</g>
</g>
</svg>
